External Loads File
version=1
nRows=78
nColumns=13
Range=5.000000e-03-10 seconds
endheader
time 	forceRightX 	forceRightY 	forceRightZ 	pointRightX 	pointRightY 	pointRightZ 	forceLeftX 	forceLeftY 	forceLeftZ 	pointLeftX 	pointLeftY 	pointLeftZ 		
7.505000 94.062153 106.191489 -0.000000 0.224951 0.184671 -0.187355 -70.079947 143.598119 -0.000000 0.404342 0.474098 -0.445780
7.510000 90.204213 85.468913 -0.000000 0.214483 0.190828 -0.187390 -77.349201 180.104700 -0.000000 0.410421 0.467372 -0.446158
7.515000 86.662144 67.273864 -0.000000 0.204651 0.197354 -0.187313 -85.575941 218.913333 -0.000000 0.416541 0.459933 -0.446564
7.520000 83.389621 51.456871 -0.000000 0.195346 0.204507 -0.187110 -94.531187 258.567368 -0.000000 0.422520 0.451954 -0.446822
7.525000 80.295966 37.804174 -0.000000 0.186777 0.212187 -0.186901 -103.855274 297.372636 -0.000000 0.428517 0.443583 -0.446934
7.530000 77.235953 26.136048 -0.000000 0.178620 0.220242 -0.186896 -113.369268 333.644623 -0.000000 0.434049 0.434732 -0.447063
7.535000 74.112995 16.116705 -0.000000 0.171400 0.228794 -0.186424 -122.206328 366.283451 -0.000000 0.439965 0.425491 -0.447120
7.540000 70.749037 7.740020 -0.000000 0.164828 0.237617 -0.186305 -130.768246 394.296581 -0.000000 0.445404 0.415870 -0.447156
7.545000 67.060070 0.939424 -0.000000 0.158931 0.246714 -0.186197 -139.112351 417.419181 -0.000000 0.450660 0.406199 -0.447031
7.550000 63.025263 -4.286409 -0.000000 0.153491 0.256099 -0.186405 -147.551846 435.854231 -0.000000 0.455282 0.396512 -0.446809
7.555000 58.687909 -8.082071 -0.000000 0.148593 0.265758 -0.186628 -155.248807 450.626510 -0.000000 0.459506 0.386366 -0.446701
7.560000 54.176111 -10.447203 -0.000000 0.144542 0.275600 -0.187227 -162.185244 462.756865 -0.000000 0.463642 0.375888 -0.446990
7.565000 49.723037 -11.368660 -0.000000 0.140980 0.285597 -0.187680 -168.878000 473.139140 -0.000000 0.467109 0.365311 -0.446845
7.570000 45.587529 -11.029109 -0.000000 0.138079 0.295812 -0.187915 -174.986335 482.857519 -0.000000 0.470003 0.354743 -0.446607
7.575000 41.991284 -9.728452 -0.000000 0.135948 0.306185 -0.188212 -180.034739 492.855847 -0.000000 0.472314 0.344025 -0.446397
7.580000 39.052788 -7.819164 -0.000000 0.134574 0.316619 -0.188779 -183.916790 503.715613 -0.000000 0.474221 0.333259 -0.446373
7.585000 36.737711 -5.703666 -0.000000 0.133751 0.327242 -0.189497 -186.126699 515.913866 -0.000000 0.475336 0.322412 -0.446417
7.590000 34.900314 -3.686365 -0.000000 0.133913 0.337796 -0.189772 -186.810411 529.463870 -0.000000 0.475849 0.311542 -0.446866
7.595000 33.316319 -2.039410 -0.000000 0.134898 0.348437 -0.190582 -185.334695 544.462167 -0.000000 0.475568 0.300636 -0.446886
7.600000 31.752306 -0.873725 -0.000000 0.135725 0.358995 -0.192933 -182.007358 560.464947 -0.000000 0.474626 0.289685 -0.446793
7.605000 29.994951 -0.324768 -0.000000 0.139156 0.369649 -0.192581 -175.457609 577.364918 -0.000000 0.473043 0.278838 -0.446979
7.610000 27.863071 -0.347546 -0.000000 0.142492 0.380172 -0.193497 -166.812553 594.091246 -0.000000 0.470794 0.268132 -0.447152
7.615000 25.199560 -0.954861 -0.000000 0.146489 0.390734 -0.194381 -155.531775 610.013098 -0.000000 0.467915 0.257662 -0.447180
7.620000 21.896549 -2.085633 -0.000000 0.151264 0.400983 -0.195316 -142.137154 624.199107 -0.000000 0.464327 0.247486 -0.447130
7.625000 17.918103 -3.686912 -0.000000 0.155912 0.411000 -0.197589 -127.733967 635.761413 -0.000000 0.460179 0.237736 -0.447031
7.630000 13.256678 -5.848022 -0.000000 0.163046 0.420774 -0.196876 -109.752252 644.734486 -0.000000 0.455421 0.228317 -0.446908
7.635000 7.955803 -8.523662 -0.000000 0.170067 0.430273 -0.197401 -91.176674 650.261715 -0.000000 0.450131 0.219196 -0.446837
7.640000 2.064734 -11.754675 -0.000000 0.177673 0.439463 -0.197897 -71.946551 652.376485 -0.000000 0.444389 0.210375 -0.446721
7.645000 -4.311910 -15.539953 -0.000000 0.185850 0.448142 -0.198247 -52.935568 651.176838 -0.000000 0.438121 0.202092 -0.446654
7.650000 -11.012169 -19.870474 -0.000000 0.193733 0.456498 -0.200132 -35.118369 646.964440 -0.000000 0.431370 0.194252 -0.446516
7.655000 -17.972642 -24.649803 -0.000000 0.203107 0.464455 -0.200491 -16.132209 640.325248 -0.000000 0.424182 0.186890 -0.446357
7.660000 -25.136022 -29.709602 -0.000000 0.214188 0.471834 -0.199432 4.174960 631.606717 -0.000000 0.416577 0.180099 -0.446242
7.665000 -32.258602 -34.997781 -0.000000 0.224142 0.478936 -0.199957 21.666511 621.217328 -0.000000 0.408596 0.173821 -0.446259
7.670000 -39.438869 -40.081420 -0.000000 0.235060 0.485393 -0.199810 39.286033 609.466037 -0.000000 0.400265 0.168025 -0.446173
7.675000 -46.526533 -44.634336 -0.000000 0.245921 0.491111 -0.200680 55.332437 596.618494 -0.000000 0.391549 0.162828 -0.446115
7.680000 -53.505056 -48.108626 -0.000000 0.257337 0.496313 -0.200885 71.114229 582.659183 -0.000000 0.382509 0.158244 -0.446103
7.685000 -60.159848 -50.105944 -0.000000 0.268919 0.500839 -0.201160 86.069115 567.587303 -0.000000 0.373187 0.154337 -0.446061
7.690000 -66.253182 -50.271758 -0.000000 0.280581 0.504542 -0.201379 100.076745 551.272127 -0.000000 0.363607 0.151132 -0.446027
7.695000 -71.524326 -48.379280 -0.000000 0.292244 0.507555 -0.201470 112.905426 533.568685 -0.000000 0.353890 0.148670 -0.445932
7.700000 -75.770272 -44.284973 -0.000000 0.304062 0.509775 -0.201583 124.658814 514.272073 -0.000000 0.344000 0.146906 -0.445789
7.705000 -78.840426 -37.913951 -0.000000 0.316309 0.511345 -0.201994 135.530363 493.106557 -0.000000 0.334045 0.145736 -0.445682
7.710000 -80.508159 -29.506263 -0.000000 0.328012 0.512141 -0.201856 144.022558 470.259193 -0.000000 0.324021 0.145337 -0.445543
7.715000 -80.788350 -18.942206 -0.000000 0.339819 0.512266 -0.201830 150.874774 445.379775 -0.000000 0.314051 0.145648 -0.445419
7.720000 -79.685163 -6.264482 -0.000000 0.351314 0.511816 -0.201833 155.455848 418.614074 -0.000000 0.304134 0.146691 -0.445269
7.725000 -77.350533 8.701206 -0.000000 0.362643 0.510663 -0.201788 157.874193 390.032164 -0.000000 0.294326 0.148320 -0.445058
7.730000 -74.035060 26.182031 -0.000000 0.373690 0.508839 -0.201683 158.188540 359.900960 -0.000000 0.284617 0.150786 -0.444890
7.735000 -70.107811 46.398257 -0.000000 0.384374 0.506238 -0.201519 156.398454 328.706558 -0.000000 0.275138 0.153824 -0.444658
7.740000 -65.924188 69.688238 -0.000000 0.394756 0.502703 -0.201398 153.154748 296.798007 -0.000000 0.265520 0.157615 -0.443863
7.745000 -61.999598 96.153734 -0.000000 0.404612 0.498342 -0.201273 148.239953 265.073281 -0.000000 0.256440 0.161981 -0.443711
7.750000 -58.472625 126.074652 -0.000000 0.414338 0.493036 -0.200418 142.591724 233.871384 -0.000000 0.247549 0.167053 -0.443608
7.755000 -55.878903 159.334816 -0.000000 0.423262 0.487004 -0.199768 135.880426 204.232538 -0.000000 0.239148 0.172803 -0.443309
7.760000 -54.351930 195.914198 -0.000000 0.431393 0.479929 -0.199026 128.728327 176.597104 -0.000000 0.231108 0.178997 -0.443095
7.765000 -54.426927 235.466449 -0.000000 0.438796 0.472941 -0.198363 121.321165 151.573164 -0.000000 0.223389 0.185692 -0.442837
7.770000 -55.992669 277.505832 -0.000000 0.445929 0.465290 -0.197411 114.329827 129.212294 -0.000000 0.216088 0.193024 -0.442628
7.775000 -59.374478 320.998598 -0.000000 0.452711 0.456897 -0.196596 107.883620 109.707779 -0.000000 0.209235 0.200711 -0.442568
7.780000 -64.205259 364.579848 -0.000000 0.459426 0.447524 -0.195344 102.192892 92.875157 -0.000000 0.202920 0.208799 -0.442547
7.785000 -70.585499 406.436251 -0.000000 0.466007 0.437822 -0.194126 97.109776 78.632379 -0.000000 0.197209 0.217296 -0.442569
7.790000 -78.105544 444.761415 -0.000000 0.472514 0.428070 -0.194080 92.554240 66.697379 -0.000000 0.192023 0.226185 -0.442654
7.795000 -86.610933 477.970329 -0.000000 0.478737 0.417889 -0.194626 88.401204 56.809228 -0.000000 0.187519 0.234922 -0.442755
7.800000 -95.128170 505.188092 -0.000000 0.484459 0.407437 -0.194508 84.676568 48.515837 -0.000000 0.183715 0.244202 -0.443043
7.805000 -103.371746 526.162055 -0.000000 0.489740 0.396746 -0.194268 81.321219 41.471597 -0.000000 0.180449 0.253799 -0.443272
7.810000 -111.908110 541.246895 -0.000000 0.494826 0.386206 -0.194690 78.190187 35.418713 -0.000000 0.177787 0.263535 -0.443472
7.815000 -120.421804 551.593435 -0.000000 0.499521 0.375554 -0.195075 75.174893 29.983151 -0.000000 0.175752 0.273450 -0.443733
7.820000 -128.479935 558.725563 -0.000000 0.503863 0.364681 -0.195165 72.145529 24.895527 -0.000000 0.174351 0.283632 -0.443949
7.825000 -136.348302 564.032831 -0.000000 0.507669 0.353789 -0.195255 68.971411 20.118398 -0.000000 0.173459 0.293957 -0.444165
7.830000 -143.188149 568.921519 -0.000000 0.510938 0.342757 -0.195393 65.665835 15.592567 -0.000000 0.173312 0.304580 -0.444243
7.835000 -149.178686 574.158798 -0.000000 0.513307 0.331770 -0.195388 62.318123 11.450912 -0.000000 0.173619 0.315159 -0.444281
7.840000 -153.192339 580.432661 -0.000000 0.514823 0.320742 -0.195135 59.080727 7.662908 -0.000000 0.174465 0.325881 -0.444352
7.845000 -154.987192 587.858135 -0.000000 0.515732 0.309790 -0.195543 56.014049 4.239094 -0.000000 0.176101 0.336633 -0.444697
7.850000 -154.323571 596.280847 -0.000000 0.515445 0.298957 -0.195508 53.122392 1.140613 -0.000000 0.177888 0.347420 -0.444493
7.855000 -150.462933 605.506165 -0.000000 0.514136 0.288130 -0.195625 50.416104 -1.747032 -0.000000 0.180340 0.358302 -0.444662
7.860000 -143.829328 614.937658 -0.000000 0.511976 0.277507 -0.195347 47.929637 -4.481611 -0.000000 0.183396 0.369162 -0.444496
7.865000 -135.189749 623.857525 -0.000000 0.508726 0.267094 -0.195259 45.702356 -7.152273 -0.000000 0.186886 0.379631 -0.444452
7.870000 -124.089982 631.816658 -0.000000 0.504818 0.256956 -0.195330 43.712686 -9.966768 -0.000000 0.191048 0.390018 -0.444374
7.875000 -111.177136 638.155317 -0.000000 0.500026 0.247125 -0.195554 41.860999 -13.029220 -0.000000 0.195616 0.400250 -0.444247
7.880000 -96.628390 642.413338 -0.000000 0.494237 0.237660 -0.196333 39.959296 -16.409598 -0.000000 0.200708 0.410293 -0.444179
7.885000 -81.273583 644.200829 -0.000000 0.487778 0.228461 -0.196351 37.811059 -20.053640 -0.000000 0.206248 0.419951 -0.443981
7.890000 -65.416543 643.425595 -0.000000 0.480513 0.219758 -0.196394 35.251251 -23.879676 -0.000000 0.212240 0.429427 -0.443804
